<mxfile host="app.diagrams.net" modified="2022-07-17T04:46:45.540Z" agent="5.0 (Windows NT 10.0; Win64; x64) AppleWebKit/537.36 (KHTML, like Gecko) Chrome/103.0.0.0 Safari/537.36" etag="qG7TyUfB6Ue-4JJasSgR" version="20.1.1" type="github">
  <diagram id="C5RBs43oDa-KdzZeNtuy" name="Page-1">
    <mxGraphModel dx="1837" dy="957" grid="1" gridSize="10" guides="0" tooltips="1" connect="1" arrows="1" fold="1" page="1" pageScale="1" pageWidth="827" pageHeight="1169" background="#283618" math="0" shadow="0">
      <root>
        <mxCell id="WIyWlLk6GJQsqaUBKTNV-0" />
        <mxCell id="WIyWlLk6GJQsqaUBKTNV-1" parent="WIyWlLk6GJQsqaUBKTNV-0" />
        <mxCell id="914fKn-O3ewcdbWCBzEu-2" value="" style="rounded=0;whiteSpace=wrap;html=1;fontSize=16;fillColor=#BC6C25;strokeColor=#DDA15E;fontColor=#FEFAE0;" parent="WIyWlLk6GJQsqaUBKTNV-1" vertex="1">
          <mxGeometry x="55" y="301" width="309" height="90" as="geometry" />
        </mxCell>
        <mxCell id="914fKn-O3ewcdbWCBzEu-1" value="We Search For Something On Keyboard" style="rounded=0;whiteSpace=wrap;html=1;fontSize=16;fillColor=#BC6C25;strokeColor=#DDA15E;fontColor=#FEFAE0;" parent="WIyWlLk6GJQsqaUBKTNV-1" vertex="1">
          <mxGeometry x="69" y="316" width="281" height="60" as="geometry" />
        </mxCell>
        <mxCell id="914fKn-O3ewcdbWCBzEu-4" value="Input" style="text;html=1;strokeColor=none;fillColor=none;spacing=5;spacingTop=-20;whiteSpace=wrap;overflow=hidden;rounded=0;fontSize=30;fontStyle=1;align=center;fontColor=#FEFAE0;" parent="WIyWlLk6GJQsqaUBKTNV-1" vertex="1">
          <mxGeometry x="363" y="339" width="93" height="20" as="geometry" />
        </mxCell>
        <mxCell id="914fKn-O3ewcdbWCBzEu-6" value="" style="rounded=0;whiteSpace=wrap;html=1;fontSize=16;fillColor=#BC6C25;strokeColor=#DDA15E;fontColor=#FEFAE0;" parent="WIyWlLk6GJQsqaUBKTNV-1" vertex="1">
          <mxGeometry x="55" y="436" width="309" height="90" as="geometry" />
        </mxCell>
        <mxCell id="914fKn-O3ewcdbWCBzEu-7" value="Computer Searches It" style="rounded=0;whiteSpace=wrap;html=1;fontSize=16;fillColor=#BC6C25;strokeColor=#DDA15E;fontColor=#FEFAE0;" parent="WIyWlLk6GJQsqaUBKTNV-1" vertex="1">
          <mxGeometry x="69" y="451" width="281" height="60" as="geometry" />
        </mxCell>
        <mxCell id="914fKn-O3ewcdbWCBzEu-9" value="Process" style="text;html=1;strokeColor=none;fillColor=none;spacing=5;spacingTop=-20;whiteSpace=wrap;overflow=hidden;rounded=0;fontSize=30;fontStyle=1;align=center;fontColor=#FEFAE0;" parent="WIyWlLk6GJQsqaUBKTNV-1" vertex="1">
          <mxGeometry x="358" y="470" width="153" height="20" as="geometry" />
        </mxCell>
        <mxCell id="914fKn-O3ewcdbWCBzEu-11" value="" style="rounded=0;whiteSpace=wrap;html=1;fontSize=16;fillColor=#BC6C25;strokeColor=#DDA15E;fontColor=#FEFAE0;" parent="WIyWlLk6GJQsqaUBKTNV-1" vertex="1">
          <mxGeometry x="55" y="667" width="309" height="90" as="geometry" />
        </mxCell>
        <mxCell id="914fKn-O3ewcdbWCBzEu-12" value="Show Info About It To Us" style="rounded=0;whiteSpace=wrap;html=1;fontSize=16;fillColor=#BC6C25;strokeColor=#DDA15E;fontColor=#FEFAE0;" parent="WIyWlLk6GJQsqaUBKTNV-1" vertex="1">
          <mxGeometry x="69" y="682" width="281" height="60" as="geometry" />
        </mxCell>
        <mxCell id="914fKn-O3ewcdbWCBzEu-14" value="Output" style="text;html=1;strokeColor=none;fillColor=none;spacing=5;spacingTop=-20;whiteSpace=wrap;overflow=hidden;rounded=0;fontSize=30;fontStyle=1;align=center;fontColor=#FEFAE0;" parent="WIyWlLk6GJQsqaUBKTNV-1" vertex="1">
          <mxGeometry x="366" y="705" width="113" height="20" as="geometry" />
        </mxCell>
        <mxCell id="914fKn-O3ewcdbWCBzEu-18" style="edgeStyle=orthogonalEdgeStyle;rounded=0;orthogonalLoop=1;jettySize=auto;html=1;exitX=0.5;exitY=0;exitDx=0;exitDy=0;entryX=0.342;entryY=0.25;entryDx=0;entryDy=0;entryPerimeter=0;fontSize=25;labelBackgroundColor=#283618;strokeColor=#DDA15E;fontColor=#FEFAE0;" parent="WIyWlLk6GJQsqaUBKTNV-1" source="914fKn-O3ewcdbWCBzEu-14" target="914fKn-O3ewcdbWCBzEu-14" edge="1">
          <mxGeometry relative="1" as="geometry" />
        </mxCell>
        <mxCell id="914fKn-O3ewcdbWCBzEu-19" value="" style="rounded=0;whiteSpace=wrap;html=1;fontSize=16;fillColor=#BC6C25;fontColor=#FEFAE0;strokeColor=#DDA15E;" parent="WIyWlLk6GJQsqaUBKTNV-1" vertex="1">
          <mxGeometry x="571" y="671" width="310" height="86" as="geometry" />
        </mxCell>
        <mxCell id="914fKn-O3ewcdbWCBzEu-20" value="&lt;font&gt;Show Error To Us&lt;/font&gt;" style="rounded=0;whiteSpace=wrap;html=1;fontSize=16;fontColor=#FFFFFF;fillColor=#BC6C25;strokeColor=#DDA15E;" parent="WIyWlLk6GJQsqaUBKTNV-1" vertex="1">
          <mxGeometry x="585" y="684" width="282" height="60" as="geometry" />
        </mxCell>
        <mxCell id="914fKn-O3ewcdbWCBzEu-22" value="Output" style="text;html=1;strokeColor=none;fillColor=none;spacing=5;spacingTop=-20;whiteSpace=wrap;overflow=hidden;rounded=0;fontSize=30;fontStyle=1;align=center;fontColor=#FEFAE0;" parent="WIyWlLk6GJQsqaUBKTNV-1" vertex="1">
          <mxGeometry x="876" y="710" width="130" height="30" as="geometry" />
        </mxCell>
        <mxCell id="914fKn-O3ewcdbWCBzEu-26" value="&lt;h1&gt;&lt;font style=&quot;font-size: 20px;&quot;&gt;If Not Found&lt;/font&gt;&lt;/h1&gt;" style="text;html=1;strokeColor=none;fillColor=none;spacing=5;spacingTop=-20;whiteSpace=wrap;overflow=hidden;rounded=0;fontSize=20;align=center;fontColor=#FEFAE0;" parent="WIyWlLk6GJQsqaUBKTNV-1" vertex="1">
          <mxGeometry x="733" y="570" width="130" height="70" as="geometry" />
        </mxCell>
        <mxCell id="914fKn-O3ewcdbWCBzEu-27" value="&lt;h1&gt;&lt;font style=&quot;font-size: 20px;&quot;&gt;If Found&lt;/font&gt;&lt;/h1&gt;" style="text;html=1;strokeColor=none;fillColor=none;spacing=5;spacingTop=-20;whiteSpace=wrap;overflow=hidden;rounded=0;fontSize=20;align=center;fontColor=#FEFAE0;" parent="WIyWlLk6GJQsqaUBKTNV-1" vertex="1">
          <mxGeometry x="113" y="571" width="104" height="70" as="geometry" />
        </mxCell>
        <mxCell id="914fKn-O3ewcdbWCBzEu-33" value="The End" style="rounded=0;whiteSpace=wrap;html=1;fontSize=20;fillColor=#BC6C25;strokeColor=#DDA15E;fontColor=#FEFAE0;" parent="WIyWlLk6GJQsqaUBKTNV-1" vertex="1">
          <mxGeometry x="87.5" y="814" width="244" height="60" as="geometry" />
        </mxCell>
        <mxCell id="914fKn-O3ewcdbWCBzEu-40" value="Start" style="rounded=0;whiteSpace=wrap;html=1;fontSize=20;fontColor=#FEFAE0;fillColor=#BC6C25;strokeColor=#DDA15E;" parent="WIyWlLk6GJQsqaUBKTNV-1" vertex="1">
          <mxGeometry x="91.75" y="195" width="235.5" height="60" as="geometry" />
        </mxCell>
        <mxCell id="914fKn-O3ewcdbWCBzEu-45" value="Input Process Output (IPO)&lt;br&gt;Cycle:" style="text;strokeColor=none;fillColor=none;html=1;fontSize=50;fontStyle=1;verticalAlign=middle;align=left;fontColor=#FEFAE0;" parent="WIyWlLk6GJQsqaUBKTNV-1" vertex="1">
          <mxGeometry x="69" y="72" width="695" height="40" as="geometry" />
        </mxCell>
        <mxCell id="orbcxxND_Y8YSDv46hFB-6" value="" style="endArrow=classic;html=1;rounded=1;sketch=0;fontSize=30;fontColor=#FEFAE0;strokeColor=#DDA15E;fillColor=#BC6C25;curved=0;exitX=0.5;exitY=1;exitDx=0;exitDy=0;entryX=0.5;entryY=0;entryDx=0;entryDy=0;" edge="1" parent="WIyWlLk6GJQsqaUBKTNV-1" source="914fKn-O3ewcdbWCBzEu-40" target="914fKn-O3ewcdbWCBzEu-2">
          <mxGeometry width="50" height="50" relative="1" as="geometry">
            <mxPoint x="610" y="490" as="sourcePoint" />
            <mxPoint x="660" y="440" as="targetPoint" />
          </mxGeometry>
        </mxCell>
        <mxCell id="orbcxxND_Y8YSDv46hFB-8" value="" style="endArrow=classic;html=1;rounded=1;sketch=0;fontSize=30;fontColor=#FEFAE0;strokeColor=#DDA15E;fillColor=#BC6C25;curved=0;entryX=0.5;entryY=0;entryDx=0;entryDy=0;exitX=0.5;exitY=1;exitDx=0;exitDy=0;" edge="1" parent="WIyWlLk6GJQsqaUBKTNV-1" source="914fKn-O3ewcdbWCBzEu-2" target="914fKn-O3ewcdbWCBzEu-6">
          <mxGeometry width="50" height="50" relative="1" as="geometry">
            <mxPoint x="610" y="490" as="sourcePoint" />
            <mxPoint x="660" y="440" as="targetPoint" />
          </mxGeometry>
        </mxCell>
        <mxCell id="orbcxxND_Y8YSDv46hFB-9" value="" style="endArrow=classic;html=1;rounded=1;sketch=0;fontSize=30;fontColor=#FEFAE0;strokeColor=#DDA15E;fillColor=#BC6C25;curved=0;exitX=0.5;exitY=1;exitDx=0;exitDy=0;entryX=0.5;entryY=0;entryDx=0;entryDy=0;" edge="1" parent="WIyWlLk6GJQsqaUBKTNV-1" source="914fKn-O3ewcdbWCBzEu-6" target="914fKn-O3ewcdbWCBzEu-11">
          <mxGeometry width="50" height="50" relative="1" as="geometry">
            <mxPoint x="330" y="550" as="sourcePoint" />
            <mxPoint x="660" y="440" as="targetPoint" />
          </mxGeometry>
        </mxCell>
        <mxCell id="orbcxxND_Y8YSDv46hFB-10" value="" style="endArrow=classic;html=1;rounded=1;sketch=0;fontSize=30;fontColor=#FEFAE0;strokeColor=#DDA15E;fillColor=#BC6C25;curved=0;entryX=0.5;entryY=0;entryDx=0;entryDy=0;exitX=0.5;exitY=1;exitDx=0;exitDy=0;" edge="1" parent="WIyWlLk6GJQsqaUBKTNV-1" source="914fKn-O3ewcdbWCBzEu-11" target="914fKn-O3ewcdbWCBzEu-33">
          <mxGeometry width="50" height="50" relative="1" as="geometry">
            <mxPoint x="210" y="760" as="sourcePoint" />
            <mxPoint x="570" y="390" as="targetPoint" />
          </mxGeometry>
        </mxCell>
        <mxCell id="orbcxxND_Y8YSDv46hFB-11" value="" style="endArrow=classic;html=1;rounded=1;sketch=0;fontSize=30;fontColor=#FEFAE0;strokeColor=#DDA15E;fillColor=#BC6C25;curved=0;exitX=0.5;exitY=1;exitDx=0;exitDy=0;" edge="1" parent="WIyWlLk6GJQsqaUBKTNV-1" source="914fKn-O3ewcdbWCBzEu-19">
          <mxGeometry width="50" height="50" relative="1" as="geometry">
            <mxPoint x="728" y="847" as="sourcePoint" />
            <mxPoint x="332" y="847" as="targetPoint" />
            <Array as="points">
              <mxPoint x="726" y="847" />
            </Array>
          </mxGeometry>
        </mxCell>
        <mxCell id="orbcxxND_Y8YSDv46hFB-12" value="" style="endArrow=classic;html=1;rounded=1;sketch=0;fontSize=30;fontColor=#FEFAE0;strokeColor=#DDA15E;fillColor=#BC6C25;curved=0;entryX=0.5;entryY=0;entryDx=0;entryDy=0;" edge="1" parent="WIyWlLk6GJQsqaUBKTNV-1" target="914fKn-O3ewcdbWCBzEu-19">
          <mxGeometry width="50" height="50" relative="1" as="geometry">
            <mxPoint x="210" y="580" as="sourcePoint" />
            <mxPoint x="640" y="850" as="targetPoint" />
            <Array as="points">
              <mxPoint x="726" y="580" />
            </Array>
          </mxGeometry>
        </mxCell>
      </root>
    </mxGraphModel>
  </diagram>
</mxfile>
